<?xml version="1.0" standalone="no"?>
<!DOCTYPE svg PUBLIC "-//W3C//DTD SVG 20010904//EN"
 "http://www.w3.org/TR/2001/REC-SVG-20010904/DTD/svg10.dtd">
<svg version="1.0" xmlns="http://www.w3.org/2000/svg"
 width="4187.000000pt" height="4187.000000pt" viewBox="0 0 4187.000000 4187.000000"
 preserveAspectRatio="xMidYMid meet">
<metadata>
Created by potrace 1.16, written by Peter Selinger 2001-2019
</metadata>
<g transform="translate(0.000000,4187.000000) scale(0.100000,-0.100000)"
fill="#000000" stroke="none">
<path d="M17130 40660 c-979 -53 -1807 -250 -2535 -604 -396 -192 -632 -345
-1061 -687 -479 -382 -811 -668 -1314 -1134 -168 -155 -354 -326 -415 -380
-518 -462 -1032 -792 -2058 -1321 -503 -260 -654 -327 -1437 -639 -524 -209
-697 -283 -945 -405 -828 -408 -1441 -947 -1940 -1705 -452 -687 -777 -1455
-1170 -2760 -158 -525 -240 -836 -400 -1520 -134 -568 -189 -747 -305 -993
-198 -414 -567 -913 -1420 -1917 -216 -254 -293 -362 -408 -571 -359 -652
-566 -1581 -647 -2904 -47 -782 -20 -1143 125 -1655 109 -380 237 -722 505
-1345 279 -646 374 -924 444 -1290 45 -238 56 -371 55 -685 0 -412 -24 -618
-184 -1575 -167 -1001 -184 -1150 -184 -1610 0 -367 8 -461 65 -743 62 -306
163 -595 324 -922 268 -545 564 -957 1004 -1395 208 -207 340 -327 841 -764
468 -409 725 -650 912 -853 337 -365 482 -568 732 -1025 476 -871 867 -1503
1269 -2057 1172 -1616 2506 -2616 4222 -3165 323 -103 634 -181 1083 -271 917
-184 1533 -388 2222 -736 369 -186 626 -340 1250 -749 572 -375 776 -498 1105
-665 582 -295 1168 -482 1870 -595 652 -105 1158 -121 1705 -54 704 86 1345
265 2760 769 1128 402 1690 572 2283 690 517 102 760 124 1542 135 616 9 813
19 1180 60 1183 134 2170 476 3040 1054 840 559 1592 1369 2328 2509 106 164
268 431 526 867 174 294 356 524 634 796 359 354 732 629 1537 1134 941 590
1372 921 1796 1381 1051 1137 1884 2516 2143 3544 142 566 129 1104 -45 1812
-24 101 -94 357 -155 570 -175 616 -235 864 -278 1158 -113 781 16 1469 457
2435 36 80 187 388 335 685 148 297 303 614 344 705 314 691 435 1190 420
1730 -13 461 -125 869 -348 1267 -166 296 -332 526 -865 1198 -273 343 -416
531 -546 715 -382 543 -581 976 -644 1401 -20 137 -15 443 10 549 23 100 53
289 73 450 24 202 24 656 -1 865 -94 810 -409 1559 -968 2302 -212 283 -393
488 -688 783 -647 648 -1373 1196 -2430 1835 -1041 630 -1568 1079 -2211 1885
-63 80 -213 268 -333 418 -367 461 -553 670 -905 1022 -1143 1140 -2308 1872
-3453 2170 -565 147 -1038 197 -1761 187 -465 -6 -542 -11 -1577 -102 -839
-73 -1183 -90 -1710 -82 -212 3 -446 11 -520 17 -689 55 -1192 147 -1880 345
-824 237 -1553 368 -2365 425 -201 14 -842 20 -1035 10z m1142 -2242 c36 -14
623 -348 1304 -744 1137 -661 1243 -724 1303 -785 115 -113 171 -250 171 -416
0 -107 -18 -183 -67 -277 -42 -81 -142 -187 -216 -230 -164 -96 -375 -109
-540 -33 -57 26 -2427 1403 -2493 1448 -63 43 -148 142 -182 212 -44 88 -62
168 -62 267 0 170 52 294 174 415 131 130 250 177 436 171 81 -3 120 -9 172
-28z m-4733 -781 c290 -102 458 -411 383 -702 -28 -106 -864 -2679 -889 -2736
-50 -111 -158 -221 -275 -280 -182 -92 -415 -80 -584 29 -78 51 -174 156 -212
235 -51 102 -65 176 -59 297 l5 105 431 1325 c237 729 442 1354 456 1390 66
169 228 308 414 355 87 22 239 14 330 -18z m15816 -727 c765 -132 1409 -246
1431 -254 142 -50 278 -169 339 -297 62 -131 78 -252 50 -384 -43 -204 -199
-377 -398 -440 -144 -46 -111 -50 -1651 215 -767 132 -1412 247 -1436 255
-150 53 -274 161 -338 296 -47 98 -62 162 -62 264 0 101 15 166 61 262 99 207
332 344 554 327 33 -3 686 -113 1450 -244z m-4701 164 c73 -18 177 -72 237
-124 111 -95 97 -61 639 -1524 291 -785 504 -1375 510 -1410 21 -131 3 -246
-60 -373 -71 -144 -208 -256 -366 -298 -95 -26 -242 -22 -339 9 -135 43 -250
132 -320 247 -21 34 -227 577 -536 1410 l-502 1354 -5 105 c-5 128 13 213 65
313 128 243 396 359 677 291z m-8149 -2629 c33 -9 85 -28 115 -44 30 -15 577
-388 1215 -830 1254 -866 1251 -865 1320 -1001 54 -107 68 -176 62 -300 -8
-168 -61 -284 -183 -404 -99 -97 -269 -166 -409 -166 -68 0 -176 24 -239 53
-29 13 -581 389 -1227 836 -855 591 -1189 827 -1230 870 -206 215 -222 539
-37 778 70 92 198 176 317 209 66 18 225 17 296 -1z m-8713 -346 c76 -16 205
-80 265 -134 143 -126 223 -345 193 -528 -7 -44 -184 -543 -505 -1419 -444
-1212 -499 -1358 -543 -1422 -80 -118 -198 -200 -338 -236 -209 -54 -410 3
-564 159 -82 82 -127 160 -155 266 -17 67 -20 208 -5 273 14 61 974 2681 1004
2740 75 147 234 266 411 305 40 9 185 7 237 -4z m22872 -1504 c154 -40 309
-165 378 -303 72 -142 87 -322 40 -456 -19 -51 -1118 -2221 -1276 -2516 -96
-180 -220 -288 -386 -333 -269 -75 -563 54 -690 303 -70 138 -83 318 -32 462
27 77 1298 2564 1339 2620 72 99 205 190 324 222 72 20 230 20 303 1z m-7479
-280 c39 -8 108 -33 155 -56 l85 -41 1041 -1042 c963 -963 1044 -1046 1077
-1111 47 -93 67 -175 67 -277 0 -168 -52 -292 -174 -414 -122 -122 -246 -174
-414 -174 -103 0 -185 20 -277 68 -64 33 -160 126 -1089 1049 -560 557 -1037
1036 -1059 1065 -136 179 -156 429 -51 628 123 235 382 359 639 305z m-9124
-649 c237 -83 399 -310 399 -560 -1 -242 -157 -465 -385 -551 -54 -21 -308
-58 -1467 -215 -835 -113 -1433 -190 -1481 -190 -316 0 -577 258 -580 575 -2
108 13 175 61 275 67 143 233 277 384 310 29 7 674 97 1433 200 1526 209 1493
206 1636 156z m20384 -875 c17 -5 629 -213 1360 -462 732 -248 1355 -464 1386
-481 184 -97 300 -292 303 -508 1 -112 -14 -178 -61 -279 -67 -142 -226 -268
-384 -306 -86 -20 -218 -18 -299 4 -36 10 -660 220 -1387 468 -918 313 -1339
460 -1379 484 -169 101 -284 307 -284 509 0 271 196 515 460 575 71 16 233 14
285 -4z m-12990 -1671 c1783 -114 3413 -777 4775 -1941 180 -154 650 -620 801
-794 974 -1122 1618 -2472 1864 -3910 87 -506 117 -869 117 -1390 1 -1045
-183 -2004 -569 -2979 -399 -1009 -1000 -1921 -1783 -2707 -397 -398 -788
-721 -1245 -1026 -1715 -1144 -3805 -1585 -5845 -1232 -1246 215 -2428 724
-3447 1486 -517 386 -1057 907 -1459 1408 -945 1176 -1544 2618 -1713 4125
-39 339 -46 488 -46 915 1 524 24 826 101 1295 244 1496 889 2860 1904 4025
247 283 685 702 1005 960 985 796 2190 1364 3425 1614 397 81 706 121 1190
154 117 8 783 6 925 -3z m-7480 -535 c224 -47 400 -223 451 -451 31 -141 5
-310 -66 -426 -15 -25 -396 -559 -845 -1185 -558 -779 -834 -1155 -873 -1191
-65 -61 -186 -125 -269 -142 -89 -19 -264 -8 -338 20 -239 91 -385 302 -385
555 0 96 21 190 59 265 40 81 1674 2351 1734 2410 128 126 343 185 532 145z
m-5801 -1111 c149 -38 306 -160 374 -291 66 -126 64 -97 154 -1646 81 -1404
82 -1429 66 -1507 -25 -122 -69 -202 -163 -296 -121 -122 -245 -174 -415 -174
-171 0 -294 52 -415 174 -92 92 -138 175 -161 290 -14 69 -174 2722 -174 2886
0 158 55 286 175 405 85 86 161 131 266 159 73 20 217 20 293 0z m27986 -820
c95 -30 184 -88 255 -167 49 -55 1523 -2345 1577 -2452 108 -209 81 -465 -66
-643 -226 -274 -629 -299 -875 -53 -56 56 -182 247 -816 1239 -413 645 -767
1205 -788 1245 -148 282 -33 643 253 791 79 41 117 53 195 65 82 12 176 3 265
-25z m-31945 -669 c202 -52 354 -193 421 -392 33 -96 37 -244 10 -335 -26 -91
-1104 -2668 -1137 -2720 -17 -26 -60 -75 -97 -109 -156 -146 -390 -195 -593
-125 -99 34 -155 70 -230 146 -138 140 -197 345 -155 540 17 75 1090 2657
1139 2739 67 112 221 223 353 255 79 19 216 19 289 1z m27148 -89 c38 -14 89
-39 113 -55 77 -53 2200 -1848 2243 -1898 108 -124 158 -312 127 -480 -22
-125 -72 -221 -165 -314 -122 -121 -252 -174 -426 -172 -107 1 -222 34 -300
86 -77 51 -2162 1810 -2231 1882 -103 108 -155 241 -155 400 0 108 19 184 69
279 66 126 204 241 345 286 105 33 271 27 380 -14z m838 -4818 c97 -36 156
-74 224 -142 67 -68 127 -173 150 -262 20 -80 208 -2836 202 -2954 -6 -92 -34
-183 -82 -266 -66 -113 -215 -223 -351 -259 -75 -19 -233 -19 -308 0 -217 57
-387 240 -426 460 -5 28 -53 691 -106 1475 -94 1400 -96 1426 -80 1505 43 220
217 405 432 460 90 22 260 14 345 -17z m-22933 -288 c1269 -109 1412 -123
1474 -144 91 -32 147 -66 221 -136 245 -229 248 -613 8 -850 -115 -113 -253
-170 -411 -171 -90 0 -2735 223 -2855 241 -47 7 -100 25 -161 55 -75 36 -104
58 -165 122 -125 131 -176 267 -166 443 9 159 64 278 179 392 108 106 249 166
397 167 40 1 706 -53 1479 -119z m28906 -146 c199 -51 369 -220 421 -420 19
-75 19 -223 0 -299 -27 -102 -74 -184 -150 -260 -59 -59 -250 -188 -1255 -844
-652 -426 -1208 -785 -1237 -798 -211 -97 -467 -52 -641 112 -123 116 -186
257 -186 420 -1 110 15 177 62 275 71 145 46 127 1363 987 657 430 1219 791
1249 803 29 11 69 25 89 29 62 15 219 12 285 -5z m-33905 -1559 c202 -48 364
-197 426 -390 37 -116 615 -2767 622 -2851 7 -93 -17 -201 -68 -302 -116 -230
-378 -358 -627 -308 -196 40 -337 147 -422 321 -37 75 -60 174 -341 1455 -329
1499 -330 1502 -295 1641 56 222 252 405 476 442 58 10 169 6 229 -8z m4435
-1960 c38 -8 95 -27 127 -42 32 -16 586 -377 1231 -803 1309 -865 1281 -844
1356 -1000 47 -99 62 -163 62 -263 0 -190 -107 -386 -267 -493 -31 -21 -95
-51 -142 -67 -72 -25 -101 -30 -186 -29 -193 0 -114 -47 -1479 856 -1305 864
-1274 841 -1348 982 -55 105 -71 179 -65 304 6 122 29 199 86 288 137 211 386
318 625 267z m22341 -2286 c1301 -288 1406 -313 1484 -351 209 -100 343 -329
328 -560 -21 -323 -297 -573 -612 -555 -55 3 -506 99 -1435 306 -745 166
-1386 311 -1423 323 -179 56 -325 210 -383 403 -28 95 -24 239 10 340 81 241
301 402 551 404 69 1 263 -40 1480 -310z m6180 -779 c141 -54 251 -150 317
-276 56 -106 71 -179 65 -309 -6 -127 -28 -202 -86 -292 -21 -32 -475 -524
-1009 -1093 -1046 -1115 -1043 -1111 -1187 -1159 -338 -110 -698 92 -770 434
-37 175 6 362 114 494 59 73 1889 2024 1954 2083 61 56 149 105 232 130 89 26
287 20 370 -12z m-20713 -921 c211 -43 403 -230 453 -440 47 -202 -11 -406
-160 -554 -133 -134 -29 -104 -1607 -457 -1384 -309 -1394 -311 -1508 -311
-99 -1 -124 3 -182 25 -197 74 -334 224 -384 419 -22 87 -15 249 16 336 54
155 190 297 338 353 38 15 2527 575 2797 630 59 12 177 11 237 -1z m9603 -914
c107 -27 202 -81 280 -159 116 -117 175 -255 175 -411 0 -112 -365 -2855 -390
-2930 -80 -241 -303 -405 -555 -408 -173 -2 -304 51 -426 173 -118 118 -178
256 -179 409 0 83 365 2839 386 2910 29 101 73 172 158 256 88 88 167 134 272
159 79 19 206 19 279 1z m-16171 -295 c107 -27 189 -73 267 -150 152 -150 211
-361 159 -564 -27 -107 -73 -189 -150 -267 -59 -60 -169 -128 -1285 -796 -671
-402 -1235 -738 -1253 -747 -55 -28 -181 -56 -251 -56 -191 1 -377 99 -484
257 -161 235 -136 540 62 743 61 63 149 118 1291 801 673 403 1251 744 1283
757 115 46 238 54 361 22z m9596 -516 c238 -75 410 -311 410 -564 0 -80 -18
-165 -51 -239 -11 -24 -349 -587 -752 -1250 -703 -1158 -735 -1209 -812 -1286
-121 -123 -246 -175 -415 -175 -168 0 -293 52 -416 175 -126 124 -179 255
-177 430 1 127 31 209 145 397 809 1337 1401 2298 1445 2348 158 175 393 237
623 164z m9825 -199 c55 -12 2503 -1116 2667 -1202 125 -65 241 -212 284 -358
28 -96 24 -240 -10 -340 -33 -97 -100 -199 -169 -260 -64 -57 -191 -120 -275
-136 -79 -15 -231 -7 -296 16 -27 9 -631 281 -1343 605 -926 421 -1309 600
-1349 630 -111 84 -190 213 -220 359 -61 304 137 611 442 685 77 19 194 19
269 1z m-16410 -1810 c303 -77 499 -373 444 -669 -19 -102 -817 -2738 -851
-2811 -46 -97 -157 -209 -255 -259 -386 -193 -835 62 -860 489 -4 63 0 110 10
155 37 154 820 2731 847 2785 73 149 215 265 381 309 71 19 210 20 284 1z
m8601 -1340 c34 -8 86 -25 115 -38 76 -34 2361 -1667 2425 -1733 125 -130 183
-328 150 -514 -22 -125 -72 -217 -165 -311 -120 -120 -243 -169 -423 -169
-104 0 -217 28 -286 70 -53 32 -2260 1608 -2329 1662 -75 59 -151 169 -184
265 -20 57 -24 88 -24 193 0 105 4 136 24 193 47 138 152 261 282 332 109 59
287 81 415 50z m7963 -1166 c95 -23 192 -79 271 -159 87 -86 132 -164 160
-276 36 -141 17 -296 -52 -426 -18 -33 -62 -91 -98 -129 -135 -142 -2057
-1952 -2109 -1986 -86 -57 -180 -86 -296 -91 -179 -7 -317 47 -446 177 -120
120 -174 252 -172 426 1 107 33 217 91 308 28 43 291 299 1036 1005 550 521
1031 975 1070 1010 151 137 348 187 545 141z m-12425 -1278 c32 -11 79 -34
105 -49 25 -16 566 -372 1201 -791 1276 -842 1253 -825 1323 -973 47 -98 62
-165 61 -273 -2 -196 -93 -371 -251 -479 -171 -116 -397 -137 -583 -53 -30 13
-584 374 -1230 800 -1294 854 -1283 846 -1353 988 -106 216 -82 455 64 646 67
86 183 164 289 193 111 31 270 27 374 -9z"/>
</g>
</svg>
